<svg width="300" height="200" viewBox="0 0 300 200" fill="none" xmlns="http://www.w3.org/2000/svg">
<rect width="300" height="200" fill="white"/>
<g filter="url(#filter0_i_1_3)">
<path fill-rule="evenodd" clip-rule="evenodd" d="M103.309 63C103.309 65.5282 102.684 67.9103 101.579 70H140V115H160V70H199.039C197.935 67.9103 197.309 65.5282 197.309 63C197.309 60.0588 198.156 57.3154 199.618 55H160H140H101C102.463 57.3154 103.309 60.0588 103.309 63Z" fill="#E68F8C"/>
</g>
<g filter="url(#filter1_i_1_3)">
<circle cx="208.309" cy="63" r="10" fill="#E68F8C"/>
</g>
<g filter="url(#filter2_i_1_3)">
<circle cx="92.3091" cy="63" r="10" fill="#E68F8C"/>
</g>
<circle cx="92" cy="47" r="3" fill="#201B1B"/>
<path fill-rule="evenodd" clip-rule="evenodd" d="M87.0019 46C87.0019 45.4477 86.5542 45 86.0019 45H68.8416C68.1585 45 67.7224 45.6685 68.2036 46.1534C69.8637 47.8264 73.7431 49 78.264 49C81.5437 49 84.4857 48.3824 86.4878 47.4046C86.8109 47.2468 87.0019 46.9117 87.0019 46.5521V46Z" fill="#201B1B"/>
<path fill-rule="evenodd" clip-rule="evenodd" d="M97 46C97 45.4477 97.4477 45 98 45H115.16C115.843 45 116.28 45.6685 115.798 46.1534C114.138 47.8264 110.259 49 105.738 49C102.458 49 99.5162 48.3824 97.5141 47.4046C97.191 47.2468 97 46.9117 97 46.5521V46Z" fill="#201B1B"/>
<circle cx="208" cy="47" r="3" fill="#201B1B"/>
<path fill-rule="evenodd" clip-rule="evenodd" d="M203.002 46C203.002 45.4477 202.554 45 202.002 45H184.842C184.158 45 183.722 45.6685 184.204 46.1534C185.864 47.8264 189.743 49 194.264 49C197.544 49 200.486 48.3824 202.488 47.4046C202.811 47.2468 203.002 46.9117 203.002 46.5521V46Z" fill="#201B1B"/>
<path fill-rule="evenodd" clip-rule="evenodd" d="M213 46C213 45.4477 213.448 45 214 45H231.16C231.843 45 232.28 45.6685 231.798 46.1534C230.138 47.8264 226.259 49 221.738 49C218.458 49 215.516 48.3824 213.514 47.4046C213.191 47.2468 213 46.9117 213 46.5521V46Z" fill="#201B1B"/>
<circle cx="208" cy="91" r="10" stroke="#201B1B" stroke-width="6"/>
<circle cx="92" cy="91" r="10" stroke="#201B1B" stroke-width="6"/>
<path d="M25.648 168V139.6H14.448V133H44.948V139.6H33.748V168H25.648ZM54.3063 168V133H62.4063V168H54.3063ZM75.7125 168V133H91.6125C95.4125 133 98.7625 133.733 101.663 135.2C104.563 136.633 106.829 138.65 108.463 141.25C110.096 143.85 110.913 146.933 110.913 150.5C110.913 154.033 110.096 157.117 108.463 159.75C106.829 162.35 104.563 164.383 101.663 165.85C98.7625 167.283 95.4125 168 91.6125 168H75.7125ZM83.8125 161.35H91.2125C93.5458 161.35 95.5625 160.917 97.2625 160.05C98.9958 159.15 100.329 157.883 101.263 156.25C102.229 154.617 102.713 152.7 102.713 150.5C102.713 148.267 102.229 146.35 101.263 144.75C100.329 143.117 98.9958 141.867 97.2625 141C95.5625 140.1 93.5458 139.65 91.2125 139.65H83.8125V161.35ZM122.021 168V133H137.171C140.304 133 143.004 133.517 145.271 134.55C147.538 135.55 149.288 137 150.521 138.9C151.754 140.8 152.371 143.067 152.371 145.7C152.371 148.3 151.754 150.55 150.521 152.45C149.288 154.317 147.538 155.75 145.271 156.75C143.004 157.75 140.304 158.25 137.171 158.25H126.521L130.121 154.7V168H122.021ZM144.271 168L135.521 155.3H144.171L153.021 168H144.271ZM130.121 155.6L126.521 151.8H136.721C139.221 151.8 141.088 151.267 142.321 150.2C143.554 149.1 144.171 147.6 144.171 145.7C144.171 143.767 143.554 142.267 142.321 141.2C141.088 140.133 139.221 139.6 136.721 139.6H126.521L130.121 135.75V155.6ZM180.789 168.6C178.022 168.6 175.455 168.15 173.089 167.25C170.755 166.35 168.722 165.083 166.989 163.45C165.289 161.817 163.955 159.9 162.989 157.7C162.055 155.5 161.589 153.1 161.589 150.5C161.589 147.9 162.055 145.5 162.989 143.3C163.955 141.1 165.305 139.183 167.039 137.55C168.772 135.917 170.805 134.65 173.139 133.75C175.472 132.85 178.005 132.4 180.739 132.4C183.505 132.4 186.039 132.85 188.339 133.75C190.672 134.65 192.689 135.917 194.389 137.55C196.122 139.183 197.472 141.1 198.439 143.3C199.405 145.467 199.889 147.867 199.889 150.5C199.889 153.1 199.405 155.517 198.439 157.75C197.472 159.95 196.122 161.867 194.389 163.5C192.689 165.1 190.672 166.35 188.339 167.25C186.039 168.15 183.522 168.6 180.789 168.6ZM180.739 161.7C182.305 161.7 183.739 161.433 185.039 160.9C186.372 160.367 187.539 159.6 188.539 158.6C189.539 157.6 190.305 156.417 190.839 155.05C191.405 153.683 191.689 152.167 191.689 150.5C191.689 148.833 191.405 147.317 190.839 145.95C190.305 144.583 189.539 143.4 188.539 142.4C187.572 141.4 186.422 140.633 185.089 140.1C183.755 139.567 182.305 139.3 180.739 139.3C179.172 139.3 177.722 139.567 176.389 140.1C175.089 140.633 173.939 141.4 172.939 142.4C171.939 143.4 171.155 144.583 170.589 145.95C170.055 147.317 169.789 148.833 169.789 150.5C169.789 152.133 170.055 153.65 170.589 155.05C171.155 156.417 171.922 157.6 172.889 158.6C173.889 159.6 175.055 160.367 176.389 160.9C177.722 161.433 179.172 161.7 180.739 161.7ZM210.976 168V133H217.676L238.326 158.2H235.076V133H243.076V168H236.426L215.726 142.8H218.976V168H210.976ZM263.807 147.1H280.657V153.4H263.807V147.1ZM264.407 161.5H283.457V168H256.357V133H282.807V139.5H264.407V161.5Z" fill="#201B1B"/>
<defs>
<filter id="filter0_i_1_3" x="101" y="55" width="98.6182" height="62" filterUnits="userSpaceOnUse" color-interpolation-filters="sRGB">
<feFlood flood-opacity="0" result="BackgroundImageFix"/>
<feBlend mode="normal" in="SourceGraphic" in2="BackgroundImageFix" result="shape"/>
<feColorMatrix in="SourceAlpha" type="matrix" values="0 0 0 0 0 0 0 0 0 0 0 0 0 0 0 0 0 0 127 0" result="hardAlpha"/>
<feOffset dy="2"/>
<feGaussianBlur stdDeviation="2"/>
<feComposite in2="hardAlpha" operator="arithmetic" k2="-1" k3="1"/>
<feColorMatrix type="matrix" values="0 0 0 0 0 0 0 0 0 0 0 0 0 0 0 0 0 0 0.25 0"/>
<feBlend mode="normal" in2="shape" result="effect1_innerShadow_1_3"/>
</filter>
<filter id="filter1_i_1_3" x="197.309" y="53" width="21" height="22" filterUnits="userSpaceOnUse" color-interpolation-filters="sRGB">
<feFlood flood-opacity="0" result="BackgroundImageFix"/>
<feBlend mode="normal" in="SourceGraphic" in2="BackgroundImageFix" result="shape"/>
<feColorMatrix in="SourceAlpha" type="matrix" values="0 0 0 0 0 0 0 0 0 0 0 0 0 0 0 0 0 0 127 0" result="hardAlpha"/>
<feOffset dx="-1" dy="2"/>
<feGaussianBlur stdDeviation="2"/>
<feComposite in2="hardAlpha" operator="arithmetic" k2="-1" k3="1"/>
<feColorMatrix type="matrix" values="0 0 0 0 0.12549 0 0 0 0 0.105882 0 0 0 0 0.105882 0 0 0 0.4 0"/>
<feBlend mode="normal" in2="shape" result="effect1_innerShadow_1_3"/>
</filter>
<filter id="filter2_i_1_3" x="82.3091" y="53" width="21" height="22" filterUnits="userSpaceOnUse" color-interpolation-filters="sRGB">
<feFlood flood-opacity="0" result="BackgroundImageFix"/>
<feBlend mode="normal" in="SourceGraphic" in2="BackgroundImageFix" result="shape"/>
<feColorMatrix in="SourceAlpha" type="matrix" values="0 0 0 0 0 0 0 0 0 0 0 0 0 0 0 0 0 0 127 0" result="hardAlpha"/>
<feOffset dx="1" dy="2"/>
<feGaussianBlur stdDeviation="2"/>
<feComposite in2="hardAlpha" operator="arithmetic" k2="-1" k3="1"/>
<feColorMatrix type="matrix" values="0 0 0 0 0.12549 0 0 0 0 0.105882 0 0 0 0 0.105882 0 0 0 0.4 0"/>
<feBlend mode="normal" in2="shape" result="effect1_innerShadow_1_3"/>
</filter>
</defs>
</svg>
